<?xml version="1.0" standalone="no"?>
<!DOCTYPE svg PUBLIC "-//W3C//DTD SVG 20010904//EN"
 "http://www.w3.org/TR/2001/REC-SVG-20010904/DTD/svg10.dtd">
<svg version="1.0" xmlns="http://www.w3.org/2000/svg"
 width="413.000000pt" height="413.000000pt" viewBox="0 0 413.000000 413.000000"
 preserveAspectRatio="xMidYMid meet">

<g transform="translate(0.000000,413.000000) scale(0.100000,-0.100000)"
fill="#000000" stroke="none">
<path d="M2033 3813 c26 -2 67 -2 90 0 23 2 2 3 -48 3 -49 0 -68 -1 -42 -3z"/>
<path d="M1878 3803 c12 -2 32 -2 45 0 12 2 2 4 -23 4 -25 0 -35 -2 -22 -4z"/>
<path d="M2218 3803 c12 -2 32 -2 45 0 12 2 2 4 -23 4 -25 0 -35 -2 -22 -4z"/>
<path d="M1808 3793 c6 -2 18 -2 25 0 6 3 1 5 -13 5 -14 0 -19 -2 -12 -5z"/>
<path d="M2303 3793 c9 -2 23 -2 30 0 6 3 -1 5 -18 5 -16 0 -22 -2 -12 -5z"/>
<path d="M1748 3783 c6 -2 18 -2 25 0 6 3 1 5 -13 5 -14 0 -19 -2 -12 -5z"/>
<path d="M2368 3783 c6 -2 18 -2 25 0 6 3 1 5 -13 5 -14 0 -19 -2 -12 -5z"/>
<path d="M1698 3773 c6 -2 18 -2 25 0 6 3 1 5 -13 5 -14 0 -19 -2 -12 -5z"/>
<path d="M2428 3773 c7 -3 16 -2 19 1 4 3 -2 6 -13 5 -11 0 -14 -3 -6 -6z"/>
<path d="M2468 3763 c7 -3 16 -2 19 1 4 3 -2 6 -13 5 -11 0 -14 -3 -6 -6z"/>
<path d="M2595 3726 c255 -82 498 -232 697 -430 84 -83 223 -260 222 -282 -1
-5 6 -14 14 -20 8 -6 12 -17 9 -25 -4 -10 -6 -9 -6 4 -1 9 -5 17 -11 17 -6 0
-5 -10 2 -25 6 -13 16 -22 21 -18 7 4 8 -1 3 -12 -5 -14 -4 -16 7 -6 12 9 13
7 10 -13 -3 -15 3 -39 15 -58 47 -77 122 -307 122 -375 0 -18 -13 -38 -40 -63
-34 -32 -40 -42 -35 -66 3 -16 8 -69 11 -119 3 -49 7 -107 8 -128 2 -21 -1
-40 -5 -43 -5 -3 -9 -40 -9 -82 0 -42 -7 -117 -15 -167 -14 -86 -13 -135 1
-60 4 25 21 52 48 79 31 31 42 51 48 86 l7 45 -3 -53 c-4 -62 2 -60 21 5 l13
48 -5 -80 c-30 -416 -267 -854 -610 -1126 -270 -214 -561 -333 -897 -369 -246
-26 -500 5 -745 91 -90 32 -285 125 -334 160 -15 10 -38 18 -51 17 -16 -2 -22
2 -20 13 1 9 -4 19 -12 22 -11 4 -13 1 -9 -11 6 -13 4 -14 -8 -4 -8 7 -36 29
-64 50 -132 98 -274 250 -375 402 -49 73 -154 272 -163 310 -3 13 -9 22 -12
19 -8 -8 39 -122 86 -208 279 -510 776 -846 1348 -912 128 -14 373 -7 491 15
82 15 243 59 325 89 126 47 311 147 297 162 -4 5 -2 5 5 1 16 -9 65 23 56 37
-3 6 -1 7 6 3 16 -10 172 118 277 226 101 104 168 193 158 209 -4 7 -3 9 4 6
13 -9 104 132 97 151 -2 7 0 10 5 7 22 -13 117 217 166 402 36 137 43 190 51
387 9 215 -29 440 -112 661 -155 414 -490 772 -896 959 -87 40 -274 106 -297
105 -10 0 28 -15 83 -33z m1065 -1376 c0 -5 -2 -10 -4 -10 -3 0 -8 5 -11 10
-3 6 -1 10 4 10 6 0 11 -4 11 -10z"/>
<path d="M1370 3670 c-19 -11 -30 -19 -25 -19 6 0 26 8 45 19 19 11 31 19 25
19 -5 0 -26 -8 -45 -19z"/>
<path d="M1940 3634 c-94 -8 -229 -36 -340 -71 -392 -120 -727 -402 -922 -773
-62 -118 -86 -178 -125 -310 -36 -123 -47 -146 -49 -99 -1 17 -10 37 -23 48
-14 12 -18 22 -11 26 5 3 10 12 9 18 0 9 -2 9 -6 0 -2 -7 -14 -13 -24 -13 -19
0 -19 2 -5 22 9 12 16 29 16 38 -1 25 -38 -30 -43 -65 -3 -16 -13 -75 -22
-130 -13 -78 -16 -135 -11 -258 3 -87 10 -166 15 -175 10 -16 10 -16 11 0 0
24 30 12 30 -12 0 -10 18 -33 40 -53 22 -19 40 -39 40 -45 0 -55 167 -465 177
-435 3 7 -1 21 -7 32 -6 12 -8 21 -6 21 3 0 15 -19 27 -41 19 -37 19 -41 4
-35 -15 5 -16 4 -5 -9 7 -8 16 -12 21 -9 9 5 13 -8 10 -36 -2 -13 -1 -13 8 0
5 8 11 12 13 10 2 -3 10 -17 18 -31 68 -119 239 -296 395 -409 109 -79 262
-158 394 -205 84 -29 65 -14 -29 24 -501 199 -835 591 -952 1118 -32 144 -32
453 0 600 66 306 209 562 434 781 125 121 218 187 385 271 275 138 611 185
926 131 471 -80 884 -390 1100 -825 43 -87 106 -258 108 -293 0 -10 3 -12 6
-5 14 35 -92 300 -174 437 -95 158 -250 329 -397 436 -74 54 -92 74 -58 64 15
-5 15 -4 -1 6 -10 6 -24 9 -32 6 -10 -3 -12 0 -8 11 5 12 1 14 -18 8 -16 -4
-20 -3 -11 3 10 7 -1 17 -42 41 -129 73 -357 150 -505 171 -81 11 -296 20
-361 14z m-1533 -1696 c-3 -8 -6 -5 -6 6 -1 11 2 17 5 13 3 -3 4 -12 1 -19z"/>
<path d="M1164 3564 c-32 -19 -66 -42 -74 -51 -13 -13 24 9 126 74 45 28 3 10
-52 -23z"/>
<path d="M993 3446 c-55 -43 -163 -142 -143 -131 8 5 42 32 75 61 33 29 74 64
90 78 43 37 27 31 -22 -8z"/>
<path d="M2945 3350 c3 -5 11 -10 16 -10 6 0 7 5 4 10 -3 6 -11 10 -16 10 -6
0 -7 -4 -4 -10z"/>
<path d="M780 3248 c-25 -28 -47 -56 -49 -62 -4 -12 79 79 92 100 14 25 3 14
-43 -38z"/>
<path d="M2725 3198 c27 -10 83 -44 95 -58 3 -3 39 -33 80 -67 64 -51 141
-132 200 -206 12 -16 12 -20 -1 -29 -12 -8 -12 -9 1 -5 20 5 51 -24 32 -31
-10 -3 -7 -11 10 -29 13 -13 22 -28 22 -31 -4 -20 21 -52 35 -47 12 5 13 3 5
-5 -9 -9 -3 -31 21 -88 77 -177 115 -378 100 -527 -6 -59 -10 -74 -16 -55 -4
14 -7 20 -8 13 -1 -14 -59 -73 -72 -73 -5 0 -9 5 -9 10 0 15 -17 12 -23 -4 -4
-10 -1 -13 9 -9 21 8 17 -21 -6 -42 -19 -18 -20 -17 -20 3 0 44 -16 20 -28
-42 -16 -88 -66 -233 -107 -313 -28 -54 -32 -70 -22 -82 10 -14 10 -14 -3 -4
-20 15 -39 -12 -46 -64 -2 -20 -9 -42 -16 -50 -6 -7 -8 -16 -5 -19 7 -7 62 49
59 60 -2 5 4 6 11 3 8 -3 37 6 63 19 48 25 49 25 52 4 8 -50 -217 -301 -352
-393 -64 -43 -78 -56 -70 -69 3 -4 -1 -8 -9 -8 -25 0 -45 34 -50 80 l-4 45 -1
-52 c-2 -42 2 -57 19 -74 31 -31 76 -20 157 37 284 201 466 480 539 824 25
120 25 392 -1 509 -61 280 -184 502 -385 693 -100 95 -231 188 -264 187 -18 0
-16 -3 8 -11z m450 -444 c9 -19 14 -38 11 -41 -3 -3 -8 6 -11 20 -4 15 -13 31
-21 38 -8 6 -14 16 -14 21 0 17 18 -2 35 -38z m2 -906 c-3 -7 -5 -2 -5 12 0
14 2 19 5 13 2 -7 2 -19 0 -25z m0 -370 c-3 -7 -5 -2 -5 12 0 14 2 19 5 13 2
-7 2 -19 0 -25z m-20 -30 c-3 -7 -5 -2 -5 12 0 14 2 19 5 13 2 -7 2 -19 0 -25z"/>
<path d="M1375 3190 c-3 -6 1 -7 9 -4 18 7 21 14 7 14 -6 0 -13 -4 -16 -10z"/>
<path d="M1455 3190 c3 -5 3 -15 0 -20 -4 -6 -7 -140 -7 -297 1 -249 3 -288
17 -302 14 -14 17 -14 25 -1 8 13 86 15 582 18 315 1 576 6 580 10 4 4 -254 6
-572 4 l-580 -2 0 270 c0 223 -3 276 -15 300 -9 17 -20 30 -26 30 -6 0 -7 -4
-4 -10z"/>
<path d="M2666 3181 c-12 -14 -16 -31 -13 -62 l4 -44 1 44 c1 25 9 52 19 63 9
10 14 18 11 18 -3 0 -13 -9 -22 -19z"/>
<path d="M699 3153 c-32 -39 -44 -57 -32 -50 13 8 57 67 50 67 -2 0 -10 -8
-18 -17z"/>
<path d="M1323 3158 c-13 -6 -23 -15 -23 -20 0 -5 11 -1 25 8 37 24 35 30 -2
12z"/>
<path d="M1209 3067 c-76 -65 -145 -139 -181 -192 -11 -16 -3 -10 18 15 56 65
131 139 194 193 30 25 52 47 49 47 -3 0 -39 -28 -80 -63z"/>
<path d="M610 3030 c-12 -16 -19 -30 -16 -30 2 0 14 14 26 30 12 17 19 30 16
30 -2 0 -14 -13 -26 -30z"/>
<path d="M3467 3044 c3 -7 9 -14 14 -14 14 0 10 17 -5 23 -10 4 -13 1 -9 -9z"/>
<path d="M561 2950 c-12 -22 -20 -40 -18 -40 7 0 48 72 44 76 -2 2 -14 -14
-26 -36z"/>
<path d="M1220 2779 c-117 -148 -204 -339 -235 -515 -8 -43 -14 -134 -15 -201
0 -149 -6 -169 -32 -116 -10 21 -16 30 -14 21 3 -12 -1 -16 -14 -15 -10 1 -16
5 -13 10 7 12 -19 39 -34 33 -8 -3 -15 4 -19 19 -12 47 -24 25 -24 -44 0 -121
43 -284 110 -420 22 -45 43 -81 46 -81 3 0 2 5 -2 12 -4 7 -3 8 4 4 7 -4 12
-15 12 -25 0 -10 7 -25 16 -32 15 -12 16 -11 10 8 -4 12 -2 24 3 27 5 4 13 -3
16 -15 6 -17 9 -19 16 -8 7 12 9 12 9 0 0 -16 29 -40 50 -41 8 0 26 -9 40 -20
32 -25 50 -25 50 0 0 11 -4 20 -9 20 -5 0 -12 7 -15 16 -4 9 -2 13 5 8 8 -4 9
1 5 17 -6 21 -3 19 24 -11 l30 -34 -2 644 -3 645 -2 -612 c-2 -337 -7 -613
-11 -613 -14 0 -90 143 -126 236 -48 124 -68 229 -69 364 -1 179 33 332 109
483 19 39 28 65 20 57 -9 -7 -16 -8 -16 -3 0 13 71 123 93 145 20 19 60 108
49 108 -4 0 -32 -32 -62 -71z m-260 -1230 c0 -6 -4 -7 -10 -4 -5 3 -10 11 -10
16 0 6 5 7 10 4 6 -3 10 -11 10 -16z m198 -90 c-3 -8 -7 -3 -11 10 -4 17 -3
21 5 13 5 -5 8 -16 6 -23z"/>
<path d="M978 2810 c-22 -39 -15 -39 12 0 12 17 18 30 13 30 -4 0 -16 -14 -25
-30z"/>
<path d="M2857 2780 c10 -82 5 -970 -6 -1036 -6 -30 -9 -38 -10 -21 l-1 28
-22 -21 c-31 -29 -102 -59 -172 -73 -62 -13 -84 -32 -44 -40 13 -2 -5 -2 -39
1 -44 3 -63 1 -63 -7 0 -8 -103 -11 -385 -11 -265 0 -385 3 -385 11 0 5 -8 9
-17 8 -10 -1 -52 0 -93 1 -56 1 -70 4 -55 11 15 7 9 8 -21 4 -30 -3 -43 -1
-47 8 -3 8 -27 20 -54 27 -26 7 -60 22 -75 32 -14 10 -35 18 -46 18 -11 0 -22
6 -25 13 -6 14 -5 18 -7 -161 -1 -148 6 -233 25 -268 12 -25 28 -23 18 2 -3 8
-1 14 5 14 13 0 24 -29 15 -43 -5 -9 -3 -9 8 0 8 6 26 11 40 10 25 -2 27 -6
33 -61 9 -92 7 -224 -4 -231 -6 -4 -32 6 -58 21 -41 24 -45 25 -28 6 25 -28
13 -28 -24 0 -22 16 -27 24 -18 31 9 6 7 7 -6 3 -38 -13 -217 162 -312 304
-91 137 -140 247 -184 413 -15 53 -18 60 -14 27 8 -66 67 -237 112 -327 82
-160 225 -331 372 -443 127 -96 163 -108 205 -65 l25 24 0 281 0 280 573 -2
572 -3 7 -35 c5 -29 6 -27 5 17 -1 59 6 72 28 53 11 -9 15 -35 16 -104 1 -50
4 -118 8 -151 7 -55 8 -58 19 -35 8 18 11 20 11 8 1 -24 12 -23 45 3 26 20 28
20 40 4 11 -16 17 -8 54 65 l42 82 -3 619 c-1 341 0 619 3 619 10 0 97 -156
123 -221 14 -35 35 -98 46 -139 18 -65 20 -68 15 -26 -12 102 -87 279 -167
396 -17 25 -44 68 -59 95 l-29 50 8 -65z m-220 -1146 c-3 -3 -12 -4 -19 -1 -8
3 -5 6 6 6 11 1 17 -2 13 -5z m200 -306 c-3 -8 -6 -5 -6 6 -1 11 2 17 5 13 3
-3 4 -12 1 -19z m-1449 -12 c-7 -8 -15 -12 -17 -11 -5 6 10 25 20 25 5 0 4 -6
-3 -14z"/>
<path d="M462 2755 c-17 -37 -14 -45 4 -12 9 16 14 31 11 33 -2 2 -9 -7 -15
-21z"/>
<path d="M925 2724 c-15 -25 -25 -47 -23 -49 2 -2 16 18 31 46 35 62 28 65 -8
3z"/>
<path d="M1216 2695 c-17 -25 -16 -25 4 -13 11 7 20 18 20 25 0 19 -6 16 -24
-12z"/>
<path d="M431 2679 c-6 -18 -9 -34 -7 -36 2 -2 9 10 15 28 6 18 9 34 7 36 -2
2 -9 -10 -15 -28z"/>
<path d="M885 2649 c-4 -6 -5 -12 -2 -15 2 -3 7 2 10 11 7 17 1 20 -8 4z"/>
<path d="M1180 2640 c-6 -11 -8 -20 -6 -20 3 0 10 9 16 20 6 11 8 20 6 20 -3
0 -10 -9 -16 -20z"/>
<path d="M2652 2640 c0 -14 2 -19 5 -12 2 6 2 18 0 25 -3 6 -5 1 -5 -13z"/>
<path d="M406 2605 c-3 -9 -6 -22 -5 -28 0 -7 5 -1 10 12 5 13 8 26 5 28 -2 2
-6 -3 -10 -12z"/>
<path d="M851 2571 c-29 -69 -26 -78 5 -12 13 30 23 56 20 58 -2 2 -13 -19
-25 -46z"/>
<path d="M381 2514 c0 -11 3 -14 6 -6 3 7 2 16 -1 19 -3 4 -6 -2 -5 -13z"/>
<path d="M812 2461 c-7 -21 -12 -45 -11 -52 0 -8 7 8 15 35 9 26 13 50 11 52
-2 2 -9 -13 -15 -35z"/>
<path d="M371 2474 c0 -11 3 -14 6 -6 3 7 2 16 -1 19 -3 4 -6 -2 -5 -13z"/>
<path d="M361 2424 c0 -11 3 -14 6 -6 3 7 2 16 -1 19 -3 4 -6 -2 -5 -13z"/>
<path d="M3552 2405 c0 -11 4 -31 8 -45 6 -20 8 -21 8 -5 0 11 -4 31 -8 45 -6
20 -8 21 -8 5z"/>
<path d="M351 2374 c0 -11 3 -14 6 -6 3 7 2 16 -1 19 -3 4 -6 -2 -5 -13z"/>
<path d="M786 2368 c-3 -13 -5 -32 -5 -43 1 -11 5 -2 10 19 10 42 6 62 -5 24z"/>
<path d="M1459 2363 c-11 -12 -15 -74 -18 -275 -2 -142 0 -269 3 -282 7 -29
36 -42 51 -24 5 8 26 19 45 25 l35 11 -37 1 -38 1 0 255 0 255 572 -2 572 -3
6 -25 c5 -20 8 -15 11 23 2 27 2 50 0 53 -2 2 -271 4 -596 4 -539 0 -594 -1
-606 -17z"/>
<path d="M342 2310 c0 -14 2 -19 5 -12 2 6 2 18 0 25 -3 6 -5 1 -5 -13z"/>
<path d="M3572 2305 c0 -16 2 -22 5 -12 2 9 2 23 0 30 -3 6 -5 -1 -5 -18z"/>
<path d="M772 2275 c0 -16 2 -22 5 -12 2 9 2 23 0 30 -3 6 -5 -1 -5 -18z"/>
<path d="M333 2220 c0 -25 2 -35 4 -22 2 12 2 32 0 45 -2 12 -4 2 -4 -23z"/>
<path d="M3583 2220 c0 -25 2 -35 4 -22 2 12 2 32 0 45 -2 12 -4 2 -4 -23z"/>
<path d="M3113 2215 c0 -22 2 -30 4 -17 2 12 2 30 0 40 -3 9 -5 -1 -4 -23z"/>
<path d="M763 2195 c0 -22 2 -30 4 -17 2 12 2 30 0 40 -3 9 -5 -1 -4 -23z"/>
<path d="M2646 2077 c-9 -138 -6 -267 5 -267 5 0 9 86 9 190 0 105 -2 190 -4
190 -2 0 -6 -51 -10 -113z"/>
<path d="M3123 2105 c0 -38 2 -53 4 -32 2 20 2 52 0 70 -2 17 -4 1 -4 -38z"/>
<path d="M3593 2070 c0 -30 2 -43 4 -27 2 15 2 39 0 55 -2 15 -4 2 -4 -28z"/>
<path d="M763 1960 c0 -25 2 -35 4 -22 2 12 2 32 0 45 -2 12 -4 2 -4 -23z"/>
<path d="M3171 1974 c0 -11 3 -14 6 -6 3 7 2 16 -1 19 -3 4 -6 -2 -5 -13z"/>
<path d="M333 1930 c0 -30 2 -43 4 -27 2 15 2 39 0 55 -2 15 -4 2 -4 -28z"/>
<path d="M3582 1940 c0 -19 2 -27 5 -17 2 9 2 25 0 35 -3 9 -5 1 -5 -18z"/>
<path d="M3112 1940 c0 -14 2 -19 5 -12 2 6 2 18 0 25 -3 6 -5 1 -5 -13z"/>
<path d="M772 1875 c0 -16 2 -22 5 -12 2 9 2 23 0 30 -3 6 -5 -1 -5 -18z"/>
<path d="M3101 1884 c0 -11 3 -14 6 -6 3 7 2 16 -1 19 -3 4 -6 -2 -5 -13z"/>
<path d="M3566 1829 c-4 -28 -5 -53 -3 -56 3 -2 8 19 12 47 4 28 5 53 2 56 -2
3 -7 -19 -11 -47z"/>
<path d="M346 1820 c6 -65 44 -233 51 -227 2 3 -1 25 -8 48 -6 24 -20 87 -30
139 -12 62 -17 76 -13 40z"/>
<path d="M402 1850 c0 -14 2 -19 5 -12 2 6 2 18 0 25 -3 6 -5 1 -5 -13z"/>
<path d="M3091 1844 c0 -11 3 -14 6 -6 3 7 2 16 -1 19 -3 4 -6 -2 -5 -13z"/>
<path d="M1588 1813 c6 -2 18 -2 25 0 6 3 1 5 -13 5 -14 0 -19 -2 -12 -5z"/>
<path d="M3081 1804 c0 -11 3 -14 6 -6 3 7 2 16 -1 19 -3 4 -6 -2 -5 -13z"/>
<path d="M3551 1744 c0 -11 3 -14 6 -6 3 7 2 16 -1 19 -3 4 -6 -2 -5 -13z"/>
<path d="M3541 1704 c0 -11 3 -14 6 -6 3 7 2 16 -1 19 -3 4 -6 -2 -5 -13z"/>
<path d="M3036 1675 c-9 -26 -7 -32 5 -12 6 10 9 21 6 23 -2 3 -7 -2 -11 -11z"/>
<path d="M3516 1625 c-3 -9 -6 -22 -5 -28 0 -7 5 -1 10 12 5 13 8 26 5 28 -2
2 -6 -3 -10 -12z"/>
<path d="M2982 1559 c-18 -32 -31 -59 -28 -59 7 0 69 111 64 115 -2 2 -18 -23
-36 -56z"/>
<path d="M400 1572 c0 -14 32 -103 36 -100 4 5 -26 108 -32 108 -2 0 -4 -4 -4
-8z"/>
<path d="M3462 1475 c-30 -62 -27 -71 4 -12 14 27 24 51 22 53 -3 2 -14 -17
-26 -41z"/>
<path d="M2935 1380 c-23 -44 -18 -48 10 -10 28 38 29 40 15 40 -5 0 -16 -13
-25 -30z"/>
<path d="M3417 1381 c-24 -42 -21 -52 4 -13 12 18 20 35 17 37 -2 2 -12 -9
-21 -24z"/>
<path d="M3076 1381 c-10 -11 -16 -26 -13 -33 4 -10 6 -10 6 1 1 8 9 20 18 27
10 7 15 15 12 18 -3 3 -14 -3 -23 -13z"/>
<path d="M1225 1320 c-3 -5 -1 -10 4 -10 6 0 11 5 11 10 0 6 -2 10 -4 10 -3 0
-8 -4 -11 -10z"/>
<path d="M2867 1295 c-29 -36 -30 -47 -2 -19 20 20 33 11 15 -11 -8 -10 -9
-15 -1 -15 12 0 13 3 15 50 0 17 1 30 1 30 0 0 -13 -16 -28 -35z"/>
<path d="M1260 1301 c0 -5 5 -13 10 -16 6 -3 10 -2 10 4 0 5 -4 13 -10 16 -5
3 -10 2 -10 -4z"/>
<path d="M3360 1280 c-6 -11 -8 -20 -6 -20 3 0 10 9 16 20 6 11 8 20 6 20 -3
0 -10 -9 -16 -20z"/>
<path d="M3276 1160 c-26 -33 -43 -60 -39 -60 9 0 45 43 75 92 28 45 15 33
-36 -32z"/>
<path d="M3175 1038 l-50 -53 53 50 c28 27 52 51 52 52 0 8 -9 -1 -55 -49z"/>
<path d="M3094 959 c-42 -46 -289 -219 -314 -219 -5 0 -12 -4 -15 -10 -19 -30
132 60 240 145 74 58 125 105 113 105 -3 0 -13 -10 -24 -21z"/>
<path d="M1024 721 c20 -22 26 -25 26 -13 0 4 -10 13 -22 21 -23 14 -23 14 -4
-8z"/>
<path d="M2730 710 c-9 -6 -10 -10 -3 -10 6 0 15 5 18 10 8 12 4 12 -15 0z"/>
<path d="M2670 685 c-14 -8 -20 -14 -15 -14 6 0 21 6 35 14 14 8 21 14 15 14
-5 0 -21 -6 -35 -14z"/>
<path d="M2610 660 c-8 -5 -10 -10 -5 -10 6 0 17 5 25 10 8 5 11 10 5 10 -5 0
-17 -5 -25 -10z"/>
<path d="M2485 620 c-13 -5 -14 -9 -5 -9 8 0 24 4 35 9 13 5 14 9 5 9 -8 0
-24 -4 -35 -9z"/>
<path d="M1655 610 c11 -5 29 -8 40 -8 16 0 15 2 -5 8 -34 11 -60 11 -35 0z"/>
<path d="M2438 603 c7 -3 16 -2 19 1 4 3 -2 6 -13 5 -11 0 -14 -3 -6 -6z"/>
<path d="M1728 593 c7 -3 16 -2 19 1 4 3 -2 6 -13 5 -11 0 -14 -3 -6 -6z"/>
<path d="M2398 593 c7 -3 16 -2 19 1 4 3 -2 6 -13 5 -11 0 -14 -3 -6 -6z"/>
<path d="M1768 583 c6 -2 18 -2 25 0 6 3 1 5 -13 5 -14 0 -19 -2 -12 -5z"/>
<path d="M2310 580 c-34 -7 -34 -7 -5 -8 17 0 39 3 50 8 24 10 4 10 -45 0z"/>
<path d="M1823 573 c9 -2 23 -2 30 0 6 3 -1 5 -18 5 -16 0 -22 -2 -12 -5z"/>
<path d="M1898 563 c12 -2 32 -2 45 0 12 2 2 4 -23 4 -25 0 -35 -2 -22 -4z"/>
<path d="M2198 563 c12 -2 32 -2 45 0 12 2 2 4 -23 4 -25 0 -35 -2 -22 -4z"/>
<path d="M2063 553 c15 -2 37 -2 50 0 12 2 0 4 -28 4 -27 0 -38 -2 -22 -4z"/>
</g>
</svg>
